<svg xmlns="http://www.w3.org/2000/svg" width="80" height="80" fill="none"><path fill="url(#a)" d="M40 80c22.091 0 40-17.909 40-40S62.091 0 40 0 0 17.909 0 40s17.909 40 40 40Z"/><path fill="#fff" fill-rule="evenodd" d="M18.106 39.578c11.661-5.08 19.437-8.43 23.328-10.048 11.108-4.62 13.416-5.423 14.92-5.45.331-.005 1.071.077 1.55.465.405.329.517.772.57 1.084.053.311.12 1.02.067 1.574-.602 6.325-3.207 21.674-4.532 28.758-.56 2.998-1.665 4.003-2.734 4.101-2.322.214-4.086-1.535-6.336-3.01-3.52-2.307-5.51-3.744-8.927-5.996-3.95-2.602-1.389-4.033.862-6.37.589-.612 10.823-9.921 11.021-10.766.025-.105.048-.5-.186-.707-.234-.208-.579-.137-.828-.08-.353.08-5.977 3.797-16.872 11.152-1.596 1.096-3.042 1.63-4.338 1.602-1.428-.031-4.175-.808-6.218-1.471-2.505-.815-4.496-1.245-4.322-2.628.09-.72 1.082-1.457 2.975-2.21Z" clip-rule="evenodd"/><defs><linearGradient id="a" x1="40" x2="40" y1="0" y2="79.407" gradientUnits="userSpaceOnUse"><stop stop-color="#2AABEE"/><stop offset="1" stop-color="#229ED9"/></linearGradient></defs></svg>
