<svg width="144" height="144" viewBox="0 0 144 144" fill="none" xmlns="http://www.w3.org/2000/svg">
    <rect width="144" height="144" rx="20" fill="#222222"/>
    <path fill-rule="evenodd" clip-rule="evenodd" d="M77.2724 28.8073H86.545C86.9762 28.8073 87.3213 29.1543 87.3213 29.6098V84.3997C87.3213 84.848 86.9762 85.2023 86.545 85.2023H77.2724V28.8145V28.8073ZM18 28.8073H27.3516C28.1854 28.8073 28.9186 29.0965 29.2493 29.8123L45.3289 65.5942L60.0427 29.8123C60.3518 29.0965 61.085 28.8073 61.9188 28.8073H71.1482V85.195H61.8757C61.4444 85.195 61.0994 84.848 61.0994 84.3925V44.6846L50.5617 69.0718V69.0935L48.7719 73.2364C48.7072 73.3593 48.6497 73.4822 48.5706 73.5835L45.2713 81.0232L39.7725 68.9489L28.0345 44.475L28.0345 83.6695C28.0345 84.1177 27.6895 84.472 27.2582 84.472H18L18 28.8V28.8073ZM21.2202 112.836H32.1245V115.193H18.611V93.8133H31.5279V96.1704H21.2202V103.075H30.3921V105.432H21.2202V112.829V112.836ZM43.4312 102.446L49.3182 93.8206H52.1934L44.9623 104.355L52.5241 115.2H49.6273L43.4097 106.119H43.3306L37.0986 115.2H34.1659L41.7852 104.297L34.6115 93.8206H37.4436L43.3737 102.446H43.4384H43.4312ZM58.1451 115.193H55.5358V93.8133H61.4228C62.2998 93.8133 63.112 93.8784 63.8668 93.9796C64.6215 94.0808 65.29 94.2471 65.901 94.4713C67.1876 94.9195 68.1652 95.6209 68.7977 96.5174C69.4518 97.4429 69.7753 98.5491 69.7753 99.9011C69.7753 100.986 69.5884 101.933 69.1212 102.75C68.7115 103.588 68.0789 104.29 67.2667 104.839C66.4688 105.396 65.4912 105.779 64.3124 106.09C63.148 106.379 61.8038 106.502 60.3374 106.502C59.6258 106.502 58.8926 106.481 58.1379 106.423V115.193H58.1451ZM58.1451 104.022C58.4901 104.066 58.8567 104.087 59.2449 104.123C59.6114 104.145 59.9565 104.145 60.3231 104.145C61.5235 104.145 62.5657 104.066 63.3995 103.856C64.298 103.668 64.9665 103.408 65.52 103.039C66.0519 102.649 66.4401 102.222 66.6988 101.709C66.9217 101.152 67.0439 100.559 67.0439 99.9083C67.0439 99.0479 66.857 98.3683 66.476 97.8405C66.0663 97.3272 65.4984 96.9367 64.7868 96.6331C64.3196 96.4668 63.8092 96.3439 63.2198 96.286C62.6088 96.221 61.9188 96.1848 61.1425 96.1848H58.1451V104.037V104.022ZM76.6902 112.836H87.5944V115.193H74.0881V93.8133H87.005V96.1704H76.6974V103.075H85.8693V105.432H76.6974V112.829L76.6902 112.836ZM94.6171 106.336V115.193H92.0079V93.8133H97.5283C98.4483 93.8133 99.2606 93.8567 99.9147 93.9146C100.569 93.9796 101.158 94.1025 101.669 94.2399C103.178 94.6303 104.299 95.3461 105.09 96.286C105.866 97.2693 106.255 98.4768 106.255 99.9517C106.255 100.812 106.132 101.593 105.823 102.265C105.579 102.959 105.191 103.56 104.702 104.051C104.17 104.543 103.581 104.955 102.912 105.28C102.2 105.591 101.446 105.851 100.59 105.974V106.039L106.887 115.178H104.278L97.7367 106.321H94.6171V106.336ZM94.6171 96.1704V104.001H97.1832C97.9595 104.001 98.6496 103.957 99.2031 103.899C99.7565 103.856 100.26 103.755 100.734 103.632C101.611 103.343 102.323 102.916 102.811 102.28C103.3 101.709 103.523 100.884 103.523 99.9445C103.523 99.0046 103.3 98.2671 102.847 97.7104C102.38 97.1537 101.726 96.7705 100.914 96.5029C100.569 96.4017 100.102 96.3005 99.5481 96.2354C99.0377 96.2137 98.3836 96.1704 97.5283 96.1704H94.6171ZM118.905 115.193H116.318V96.1704H109.23V93.8133H126V96.1704H118.913V115.193H118.905Z" fill="white"/>
    <path d="M109.428 28.8H121.92L99.0201 57.3324L123.796 86.4H110.923C102.766 76.8457 94.8666 66.9765 86.3267 57.7999L109.428 28.8Z" fill="#005BFF"/>
</svg>
